<?xml version="1.0" encoding="UTF-8" standalone="no"?>
<!DOCTYPE svg PUBLIC "-//W3C//DTD SVG 1.1//EN"
 "http://www.w3.org/Graphics/SVG/1.1/DTD/svg11.dtd">
<!-- Generated by graphviz version 2.50.0 (20211204.2007)
 -->
<!-- Pages: 1 -->
<svg width="963pt" height="260pt"
 viewBox="0.00 0.00 963.36 260.00" xmlns="http://www.w3.org/2000/svg" xmlns:xlink="http://www.w3.org/1999/xlink">
<g id="graph0" class="graph" transform="scale(1 1) rotate(0) translate(4 256)">
<polygon fill="white" stroke="transparent" points="-4,4 -4,-256 959.36,-256 959.36,4 -4,4"/>
<!-- [root] aws_instance.web (expand) -->
<g id="node1" class="node">
<title>[root] aws_instance.web (expand)</title>
<polygon fill="none" stroke="black" points="713.36,-108 595.36,-108 595.36,-72 713.36,-72 713.36,-108"/>
<text text-anchor="middle" x="654.36" y="-86.3" font-family="Times New Roman,serif" font-size="14.00">aws_instance.web</text>
</g>
<!-- [root] provider[&quot;registry.terraform.io/hashicorp/aws&quot;] -->
<g id="node2" class="node">
<title>[root] provider[&quot;registry.terraform.io/hashicorp/aws&quot;]</title>
<polygon fill="none" stroke="black" points="257.36,-36 0.14,-18 257.36,0 514.59,-18 257.36,-36"/>
<text text-anchor="middle" x="257.36" y="-14.3" font-family="Times New Roman,serif" font-size="14.00">provider[&quot;registry.terraform.io/hashicorp/aws&quot;]</text>
</g>
<!-- [root] aws_instance.web (expand)&#45;&gt;[root] provider[&quot;registry.terraform.io/hashicorp/aws&quot;] -->
<g id="edge1" class="edge">
<title>[root] aws_instance.web (expand)&#45;&gt;[root] provider[&quot;registry.terraform.io/hashicorp/aws&quot;]</title>
<path fill="none" stroke="black" d="M595.36,-78.6C526.73,-66.49 413.11,-46.46 336.77,-33"/>
<polygon fill="black" stroke="black" points="337.18,-29.52 326.73,-31.23 335.97,-36.41 337.18,-29.52"/>
</g>
<!-- [root] var.ami_id -->
<g id="node3" class="node">
<title>[root] var.ami_id</title>
<polygon fill="none" stroke="black" points="601.86,-36 532.86,-36 532.86,0 607.86,0 607.86,-30 601.86,-36"/>
<polyline fill="none" stroke="black" points="601.86,-36 601.86,-30 "/>
<polyline fill="none" stroke="black" points="607.86,-30 601.86,-30 "/>
<text text-anchor="middle" x="570.36" y="-14.3" font-family="Times New Roman,serif" font-size="14.00">var.ami_id</text>
</g>
<!-- [root] aws_instance.web (expand)&#45;&gt;[root] var.ami_id -->
<g id="edge2" class="edge">
<title>[root] aws_instance.web (expand)&#45;&gt;[root] var.ami_id</title>
<path fill="none" stroke="black" d="M633.6,-71.7C623.12,-62.97 610.25,-52.24 598.86,-42.75"/>
<polygon fill="black" stroke="black" points="600.81,-39.82 590.89,-36.1 596.33,-45.19 600.81,-39.82"/>
</g>
<!-- [root] var.env -->
<g id="node4" class="node">
<title>[root] var.env</title>
<polygon fill="none" stroke="black" points="676.86,-36 625.86,-36 625.86,0 682.86,0 682.86,-30 676.86,-36"/>
<polyline fill="none" stroke="black" points="676.86,-36 676.86,-30 "/>
<polyline fill="none" stroke="black" points="682.86,-30 676.86,-30 "/>
<text text-anchor="middle" x="654.36" y="-14.3" font-family="Times New Roman,serif" font-size="14.00">var.env</text>
</g>
<!-- [root] aws_instance.web (expand)&#45;&gt;[root] var.env -->
<g id="edge3" class="edge">
<title>[root] aws_instance.web (expand)&#45;&gt;[root] var.env</title>
<path fill="none" stroke="black" d="M654.36,-71.7C654.36,-63.98 654.36,-54.71 654.36,-46.11"/>
<polygon fill="black" stroke="black" points="657.86,-46.1 654.36,-36.1 650.86,-46.1 657.86,-46.1"/>
</g>
<!-- [root] var.instance_count -->
<g id="node5" class="node">
<title>[root] var.instance_count</title>
<polygon fill="none" stroke="black" points="817.36,-36 701.36,-36 701.36,0 823.36,0 823.36,-30 817.36,-36"/>
<polyline fill="none" stroke="black" points="817.36,-36 817.36,-30 "/>
<polyline fill="none" stroke="black" points="823.36,-30 817.36,-30 "/>
<text text-anchor="middle" x="762.36" y="-14.3" font-family="Times New Roman,serif" font-size="14.00">var.instance_count</text>
</g>
<!-- [root] aws_instance.web (expand)&#45;&gt;[root] var.instance_count -->
<g id="edge4" class="edge">
<title>[root] aws_instance.web (expand)&#45;&gt;[root] var.instance_count</title>
<path fill="none" stroke="black" d="M680.78,-71.88C694.77,-62.81 712.14,-51.55 727.25,-41.76"/>
<polygon fill="black" stroke="black" points="729.35,-44.57 735.84,-36.19 725.55,-38.69 729.35,-44.57"/>
</g>
<!-- [root] var.instance_type -->
<g id="node6" class="node">
<title>[root] var.instance_type</title>
<polygon fill="none" stroke="black" points="949.36,-36 841.36,-36 841.36,0 955.36,0 955.36,-30 949.36,-36"/>
<polyline fill="none" stroke="black" points="949.36,-36 949.36,-30 "/>
<polyline fill="none" stroke="black" points="955.36,-30 949.36,-30 "/>
<text text-anchor="middle" x="898.36" y="-14.3" font-family="Times New Roman,serif" font-size="14.00">var.instance_type</text>
</g>
<!-- [root] aws_instance.web (expand)&#45;&gt;[root] var.instance_type -->
<g id="edge5" class="edge">
<title>[root] aws_instance.web (expand)&#45;&gt;[root] var.instance_type</title>
<path fill="none" stroke="black" d="M713.43,-72.05C749.03,-61.84 794.49,-48.8 831.42,-38.21"/>
<polygon fill="black" stroke="black" points="832.46,-41.55 841.1,-35.43 830.53,-34.82 832.46,-41.55"/>
</g>
<!-- [root] provider[&quot;registry.terraform.io/hashicorp/aws&quot;] (close) -->
<g id="node7" class="node">
<title>[root] provider[&quot;registry.terraform.io/hashicorp/aws&quot;] (close)</title>
<ellipse fill="none" stroke="black" cx="654.36" cy="-162" rx="232.86" ry="18"/>
<text text-anchor="middle" x="654.36" y="-158.3" font-family="Times New Roman,serif" font-size="14.00">[root] provider[&quot;registry.terraform.io/hashicorp/aws&quot;] (close)</text>
</g>
<!-- [root] provider[&quot;registry.terraform.io/hashicorp/aws&quot;] (close)&#45;&gt;[root] aws_instance.web (expand) -->
<g id="edge6" class="edge">
<title>[root] provider[&quot;registry.terraform.io/hashicorp/aws&quot;] (close)&#45;&gt;[root] aws_instance.web (expand)</title>
<path fill="none" stroke="black" d="M654.36,-143.7C654.36,-135.98 654.36,-126.71 654.36,-118.11"/>
<polygon fill="black" stroke="black" points="657.86,-118.1 654.36,-108.1 650.86,-118.1 657.86,-118.1"/>
</g>
<!-- [root] root -->
<g id="node8" class="node">
<title>[root] root</title>
<ellipse fill="none" stroke="black" cx="654.36" cy="-234" rx="49.29" ry="18"/>
<text text-anchor="middle" x="654.36" y="-230.3" font-family="Times New Roman,serif" font-size="14.00">[root] root</text>
</g>
<!-- [root] root&#45;&gt;[root] provider[&quot;registry.terraform.io/hashicorp/aws&quot;] (close) -->
<g id="edge7" class="edge">
<title>[root] root&#45;&gt;[root] provider[&quot;registry.terraform.io/hashicorp/aws&quot;] (close)</title>
<path fill="none" stroke="black" d="M654.36,-215.7C654.36,-207.98 654.36,-198.71 654.36,-190.11"/>
<polygon fill="black" stroke="black" points="657.86,-190.1 654.36,-180.1 650.86,-190.1 657.86,-190.1"/>
</g>
</g>
</svg>
