<?xml version="1.0" encoding="UTF-8" standalone="no"?>
<!DOCTYPE svg PUBLIC "-//W3C//DTD SVG 1.1//EN"
 "http://www.w3.org/Graphics/SVG/1.1/DTD/svg11.dtd">
<!-- Generated by graphviz version 2.50.0 (20211204.2007)
 -->
<!-- Pages: 1 -->
<svg width="858pt" height="332pt"
 viewBox="0.00 0.00 858.24 332.00" xmlns="http://www.w3.org/2000/svg" xmlns:xlink="http://www.w3.org/1999/xlink">
<g id="graph0" class="graph" transform="scale(1 1) rotate(0) translate(4 328)">
<polygon fill="white" stroke="transparent" points="-4,4 -4,-328 854.24,-328 854.24,4 -4,4"/>
<!-- [root] aws_iam_policy.policy (expand) -->
<g id="node1" class="node">
<title>[root] aws_iam_policy.policy (expand)</title>
<polygon fill="none" stroke="black" points="753,-180 607,-180 607,-144 753,-144 753,-180"/>
<text text-anchor="middle" x="680" y="-158.3" font-family="Times New Roman,serif" font-size="14.00">aws_iam_policy.policy</text>
</g>
<!-- [root] provider[&quot;registry.terraform.io/hashicorp/aws&quot;] -->
<g id="node7" class="node">
<title>[root] provider[&quot;registry.terraform.io/hashicorp/aws&quot;]</title>
<polygon fill="none" stroke="black" points="492,-36 234.77,-18 492,0 749.23,-18 492,-36"/>
<text text-anchor="middle" x="492" y="-14.3" font-family="Times New Roman,serif" font-size="14.00">provider[&quot;registry.terraform.io/hashicorp/aws&quot;]</text>
</g>
<!-- [root] aws_iam_policy.policy (expand)&#45;&gt;[root] provider[&quot;registry.terraform.io/hashicorp/aws&quot;] -->
<g id="edge2" class="edge">
<title>[root] aws_iam_policy.policy (expand)&#45;&gt;[root] provider[&quot;registry.terraform.io/hashicorp/aws&quot;]</title>
<path fill="none" stroke="black" d="M657.32,-143.87C623.09,-118.02 558.26,-69.04 520.76,-40.72"/>
<polygon fill="black" stroke="black" points="522.83,-37.9 512.74,-34.67 518.61,-43.49 522.83,-37.9"/>
</g>
<!-- [root] local.name (expand) -->
<g id="node11" class="node">
<title>[root] local.name (expand)</title>
<ellipse fill="none" stroke="black" cx="743" cy="-90" rx="107.48" ry="18"/>
<text text-anchor="middle" x="743" y="-86.3" font-family="Times New Roman,serif" font-size="14.00">[root] local.name (expand)</text>
</g>
<!-- [root] aws_iam_policy.policy (expand)&#45;&gt;[root] local.name (expand) -->
<g id="edge1" class="edge">
<title>[root] aws_iam_policy.policy (expand)&#45;&gt;[root] local.name (expand)</title>
<path fill="none" stroke="black" d="M695.57,-143.7C703.2,-135.22 712.52,-124.86 720.88,-115.58"/>
<polygon fill="black" stroke="black" points="723.52,-117.88 727.61,-108.1 718.31,-113.2 723.52,-117.88"/>
</g>
<!-- [root] aws_iam_user.dev&#45;user (expand) -->
<g id="node2" class="node">
<title>[root] aws_iam_user.dev&#45;user (expand)</title>
<polygon fill="none" stroke="black" points="245,-108 97,-108 97,-72 245,-72 245,-108"/>
<text text-anchor="middle" x="171" y="-86.3" font-family="Times New Roman,serif" font-size="14.00">aws_iam_user.dev&#45;user</text>
</g>
<!-- [root] aws_iam_user.dev&#45;user (expand)&#45;&gt;[root] provider[&quot;registry.terraform.io/hashicorp/aws&quot;] -->
<g id="edge3" class="edge">
<title>[root] aws_iam_user.dev&#45;user (expand)&#45;&gt;[root] provider[&quot;registry.terraform.io/hashicorp/aws&quot;]</title>
<path fill="none" stroke="black" d="M245.05,-72.85C298.62,-61.17 370.51,-45.49 422.91,-34.07"/>
<polygon fill="black" stroke="black" points="423.76,-37.46 432.79,-31.91 422.27,-30.62 423.76,-37.46"/>
</g>
<!-- [root] var.user_name -->
<g id="node10" class="node">
<title>[root] var.user_name</title>
<polygon fill="none" stroke="black" points="211,-36 119,-36 119,0 217,0 217,-30 211,-36"/>
<polyline fill="none" stroke="black" points="211,-36 211,-30 "/>
<polyline fill="none" stroke="black" points="217,-30 211,-30 "/>
<text text-anchor="middle" x="168" y="-14.3" font-family="Times New Roman,serif" font-size="14.00">var.user_name</text>
</g>
<!-- [root] aws_iam_user.dev&#45;user (expand)&#45;&gt;[root] var.user_name -->
<g id="edge4" class="edge">
<title>[root] aws_iam_user.dev&#45;user (expand)&#45;&gt;[root] var.user_name</title>
<path fill="none" stroke="black" d="M170.26,-71.7C169.93,-63.98 169.53,-54.71 169.16,-46.11"/>
<polygon fill="black" stroke="black" points="172.66,-45.95 168.73,-36.1 165.66,-46.25 172.66,-45.95"/>
</g>
<!-- [root] aws_iam_user_policy.lb_ro (expand) -->
<g id="node3" class="node">
<title>[root] aws_iam_user_policy.lb_ro (expand)</title>
<polygon fill="none" stroke="black" points="371,-180 199,-180 199,-144 371,-144 371,-180"/>
<text text-anchor="middle" x="285" y="-158.3" font-family="Times New Roman,serif" font-size="14.00">aws_iam_user_policy.lb_ro</text>
</g>
<!-- [root] aws_iam_user_policy.lb_ro (expand)&#45;&gt;[root] aws_iam_user.dev&#45;user (expand) -->
<g id="edge5" class="edge">
<title>[root] aws_iam_user_policy.lb_ro (expand)&#45;&gt;[root] aws_iam_user.dev&#45;user (expand)</title>
<path fill="none" stroke="black" d="M257.11,-143.88C242.21,-134.72 223.67,-123.34 207.62,-113.48"/>
<polygon fill="black" stroke="black" points="209.35,-110.44 198.99,-108.19 205.69,-116.41 209.35,-110.44"/>
</g>
<!-- [root] aws_s3_bucket.my_first_bucket (expand) -->
<g id="node4" class="node">
<title>[root] aws_s3_bucket.my_first_bucket (expand)</title>
<polygon fill="none" stroke="black" points="588.5,-180 389.5,-180 389.5,-144 588.5,-144 588.5,-180"/>
<text text-anchor="middle" x="489" y="-158.3" font-family="Times New Roman,serif" font-size="14.00">aws_s3_bucket.my_first_bucket</text>
</g>
<!-- [root] aws_s3_bucket.my_first_bucket (expand)&#45;&gt;[root] provider[&quot;registry.terraform.io/hashicorp/aws&quot;] -->
<g id="edge6" class="edge">
<title>[root] aws_s3_bucket.my_first_bucket (expand)&#45;&gt;[root] provider[&quot;registry.terraform.io/hashicorp/aws&quot;]</title>
<path fill="none" stroke="black" d="M489.36,-143.87C489.87,-119.67 490.81,-75.21 491.42,-46.39"/>
<polygon fill="black" stroke="black" points="494.92,-46.26 491.64,-36.19 487.93,-46.11 494.92,-46.26"/>
</g>
<!-- [root] var.tags -->
<g id="node9" class="node">
<title>[root] var.tags</title>
<polygon fill="none" stroke="black" points="458,-108 404,-108 404,-72 464,-72 464,-102 458,-108"/>
<polyline fill="none" stroke="black" points="458,-108 458,-102 "/>
<polyline fill="none" stroke="black" points="464,-102 458,-102 "/>
<text text-anchor="middle" x="434" y="-86.3" font-family="Times New Roman,serif" font-size="14.00">var.tags</text>
</g>
<!-- [root] aws_s3_bucket.my_first_bucket (expand)&#45;&gt;[root] var.tags -->
<g id="edge7" class="edge">
<title>[root] aws_s3_bucket.my_first_bucket (expand)&#45;&gt;[root] var.tags</title>
<path fill="none" stroke="black" d="M475.4,-143.7C468.88,-135.39 460.93,-125.28 453.75,-116.14"/>
<polygon fill="black" stroke="black" points="456.37,-113.81 447.44,-108.1 450.87,-118.13 456.37,-113.81"/>
</g>
<!-- [root] output.user_arn -->
<g id="node5" class="node">
<title>[root] output.user_arn</title>
<polygon fill="none" stroke="black" points="98,-252 0,-252 0,-216 104,-216 104,-246 98,-252"/>
<polyline fill="none" stroke="black" points="98,-252 98,-246 "/>
<polyline fill="none" stroke="black" points="104,-246 98,-246 "/>
<text text-anchor="middle" x="52" y="-230.3" font-family="Times New Roman,serif" font-size="14.00">output.user_arn</text>
</g>
<!-- [root] output.user_arn&#45;&gt;[root] aws_iam_user.dev&#45;user (expand) -->
<g id="edge9" class="edge">
<title>[root] output.user_arn&#45;&gt;[root] aws_iam_user.dev&#45;user (expand)</title>
<path fill="none" stroke="black" d="M66.35,-215.87C87.17,-191.03 125.88,-144.85 149.93,-116.14"/>
<polygon fill="black" stroke="black" points="152.85,-118.1 156.59,-108.19 147.49,-113.61 152.85,-118.1"/>
</g>
<!-- [root] output.user_name -->
<g id="node6" class="node">
<title>[root] output.user_name</title>
<polygon fill="none" stroke="black" points="232,-252 122,-252 122,-216 238,-216 238,-246 232,-252"/>
<polyline fill="none" stroke="black" points="232,-252 232,-246 "/>
<polyline fill="none" stroke="black" points="238,-246 232,-246 "/>
<text text-anchor="middle" x="180" y="-230.3" font-family="Times New Roman,serif" font-size="14.00">output.user_name</text>
</g>
<!-- [root] output.user_name&#45;&gt;[root] aws_iam_user.dev&#45;user (expand) -->
<g id="edge10" class="edge">
<title>[root] output.user_name&#45;&gt;[root] aws_iam_user.dev&#45;user (expand)</title>
<path fill="none" stroke="black" d="M178.91,-215.87C177.38,-191.67 174.56,-147.21 172.74,-118.39"/>
<polygon fill="black" stroke="black" points="176.22,-117.95 172.09,-108.19 169.23,-118.39 176.22,-117.95"/>
</g>
<!-- [root] var.project -->
<g id="node8" class="node">
<title>[root] var.project</title>
<polygon fill="none" stroke="black" points="838.5,-36 767.5,-36 767.5,0 844.5,0 844.5,-30 838.5,-36"/>
<polyline fill="none" stroke="black" points="838.5,-36 838.5,-30 "/>
<polyline fill="none" stroke="black" points="844.5,-30 838.5,-30 "/>
<text text-anchor="middle" x="806" y="-14.3" font-family="Times New Roman,serif" font-size="14.00">var.project</text>
</g>
<!-- [root] local.name (expand)&#45;&gt;[root] var.project -->
<g id="edge8" class="edge">
<title>[root] local.name (expand)&#45;&gt;[root] var.project</title>
<path fill="none" stroke="black" d="M758.25,-72.05C765.88,-63.58 775.25,-53.17 783.67,-43.82"/>
<polygon fill="black" stroke="black" points="786.36,-46.05 790.45,-36.28 781.16,-41.37 786.36,-46.05"/>
</g>
<!-- [root] provider[&quot;registry.terraform.io/hashicorp/aws&quot;] (close) -->
<g id="node12" class="node">
<title>[root] provider[&quot;registry.terraform.io/hashicorp/aws&quot;] (close)</title>
<ellipse fill="none" stroke="black" cx="489" cy="-234" rx="232.86" ry="18"/>
<text text-anchor="middle" x="489" y="-230.3" font-family="Times New Roman,serif" font-size="14.00">[root] provider[&quot;registry.terraform.io/hashicorp/aws&quot;] (close)</text>
</g>
<!-- [root] provider[&quot;registry.terraform.io/hashicorp/aws&quot;] (close)&#45;&gt;[root] aws_iam_policy.policy (expand) -->
<g id="edge11" class="edge">
<title>[root] provider[&quot;registry.terraform.io/hashicorp/aws&quot;] (close)&#45;&gt;[root] aws_iam_policy.policy (expand)</title>
<path fill="none" stroke="black" d="M534.75,-216.23C561.52,-206.42 595.53,-193.96 623.91,-183.56"/>
<polygon fill="black" stroke="black" points="625.11,-186.84 633.3,-180.12 622.7,-180.27 625.11,-186.84"/>
</g>
<!-- [root] provider[&quot;registry.terraform.io/hashicorp/aws&quot;] (close)&#45;&gt;[root] aws_iam_user_policy.lb_ro (expand) -->
<g id="edge12" class="edge">
<title>[root] provider[&quot;registry.terraform.io/hashicorp/aws&quot;] (close)&#45;&gt;[root] aws_iam_user_policy.lb_ro (expand)</title>
<path fill="none" stroke="black" d="M440.4,-216.32C411.58,-206.43 374.84,-193.83 344.32,-183.36"/>
<polygon fill="black" stroke="black" points="345.24,-179.97 334.65,-180.04 342.97,-186.59 345.24,-179.97"/>
</g>
<!-- [root] provider[&quot;registry.terraform.io/hashicorp/aws&quot;] (close)&#45;&gt;[root] aws_s3_bucket.my_first_bucket (expand) -->
<g id="edge13" class="edge">
<title>[root] provider[&quot;registry.terraform.io/hashicorp/aws&quot;] (close)&#45;&gt;[root] aws_s3_bucket.my_first_bucket (expand)</title>
<path fill="none" stroke="black" d="M489,-215.7C489,-207.98 489,-198.71 489,-190.11"/>
<polygon fill="black" stroke="black" points="492.5,-190.1 489,-180.1 485.5,-190.1 492.5,-190.1"/>
</g>
<!-- [root] root -->
<g id="node13" class="node">
<title>[root] root</title>
<ellipse fill="none" stroke="black" cx="180" cy="-306" rx="49.29" ry="18"/>
<text text-anchor="middle" x="180" y="-302.3" font-family="Times New Roman,serif" font-size="14.00">[root] root</text>
</g>
<!-- [root] root&#45;&gt;[root] output.user_arn -->
<g id="edge14" class="edge">
<title>[root] root&#45;&gt;[root] output.user_arn</title>
<path fill="none" stroke="black" d="M153.79,-290.67C136.03,-280.95 112.22,-267.93 92.1,-256.93"/>
<polygon fill="black" stroke="black" points="93.6,-253.76 83.14,-252.03 90.24,-259.9 93.6,-253.76"/>
</g>
<!-- [root] root&#45;&gt;[root] output.user_name -->
<g id="edge15" class="edge">
<title>[root] root&#45;&gt;[root] output.user_name</title>
<path fill="none" stroke="black" d="M180,-287.7C180,-279.98 180,-270.71 180,-262.11"/>
<polygon fill="black" stroke="black" points="183.5,-262.1 180,-252.1 176.5,-262.1 183.5,-262.1"/>
</g>
<!-- [root] root&#45;&gt;[root] provider[&quot;registry.terraform.io/hashicorp/aws&quot;] (close) -->
<g id="edge16" class="edge">
<title>[root] root&#45;&gt;[root] provider[&quot;registry.terraform.io/hashicorp/aws&quot;] (close)</title>
<path fill="none" stroke="black" d="M220.71,-295.78C268.14,-285.03 347.66,-267.02 407.85,-253.38"/>
<polygon fill="black" stroke="black" points="408.73,-256.77 417.71,-251.15 407.18,-249.95 408.73,-256.77"/>
</g>
</g>
</svg>
